<svg width="363" height="210" viewBox="0 0 363 210" fill="none" xmlns="http://www.w3.org/2000/svg">
<path d="M16.1912 99.6947C12.4946 99.6947 9.31551 96.8947 6.65394 91.2947C3.99236 85.6947 2.66157 78.8421 2.66157 70.7368V24.7579C2.66157 21.9579 10.4245 17.1684 25.9504 10.3895C41.4762 3.46316 50.4221 0 52.7879 0C54.5623 0 57.076 2.94737 60.329 8.84211C61.0684 10.3158 62.1034 12.3053 63.4342 14.8105C64.9129 17.3158 66.0958 19.3789 66.983 21C68.9052 24.5368 71.345 26.3053 74.3023 26.3053V30.7263C71.9365 31.7579 68.7574 33.3053 64.765 35.3684C55.4495 40.5263 50.4221 43.1053 49.6827 43.1053C47.4648 43.1053 44.6553 38.7579 41.2544 30.0632C38.0014 21.3684 35.3398 17.0211 33.2697 17.0211C30.6081 17.0211 29.2773 19.2316 29.2773 23.6526V72.9474C29.2773 78.8421 30.6081 81.7895 33.2697 81.7895C33.8611 81.7895 38.445 79.8737 47.0212 76.0421C55.5973 72.2105 60.7726 70.2947 62.547 70.2947C66.0958 70.2947 69.2009 73.1684 71.8625 78.9158C74.672 84.5158 76.0767 91.7368 76.0767 100.579V147.663C76.0767 150.463 67.5744 155.326 50.5699 162.253C33.7133 169.032 24.0281 172.421 21.5144 172.421C20.4793 172.421 19.2964 171.168 17.9656 168.663C16.6348 166.158 14.8605 162.621 12.6425 158.053C10.5724 153.337 8.65012 149.432 6.87574 146.337C5.24922 143.242 2.95731 141.695 0 141.695V137.274C2.36584 136.242 5.47101 134.695 9.31551 132.632C18.7789 127.474 23.8802 124.895 24.6196 124.895C26.8375 124.895 29.9427 129.979 33.9351 140.147C38.0753 150.316 41.1805 155.4 43.2506 155.4C44.7292 155.4 46.134 154.811 47.4648 153.632C48.7955 152.453 49.4609 150.832 49.4609 148.768V99.0316C49.4609 92.4 47.6126 89.0842 43.916 89.0842C42.7331 89.0842 38.0753 90.8526 29.9427 94.3895C21.8101 97.9263 17.2263 99.6947 16.1912 99.6947Z" fill="white"/>
<path d="M165.64 73.3895V135.947C165.64 141.4 166.527 145.232 168.301 147.442C170.076 149.505 172.811 150.979 176.508 151.863V156.726L152.332 170.211C149.079 168.884 146.048 166.747 143.238 163.8C140.429 160.705 139.024 157.905 139.024 155.4L111.299 170.211C110.856 169.916 110.19 169.547 109.303 169.105C108.416 168.516 106.863 167.411 104.645 165.789C102.575 164.021 100.727 162.179 99.1003 160.263C94.6644 155.4 92.4464 149.874 92.4464 143.684V107.432C92.4464 105.074 96.2909 102.053 103.98 98.3684C111.669 94.6842 119.358 91.6632 127.047 89.3053L138.802 85.5474C138.802 77.1474 136.584 71.3263 132.148 68.0842C127.712 64.6947 119.136 63 106.42 63V56.3684C129.339 48.2631 142.203 44.2105 145.013 44.2105C149.892 44.2105 154.55 47.3789 158.986 53.7158C163.422 60.0526 165.64 66.6105 165.64 73.3895ZM119.062 135.726C119.062 139.558 120.171 142.726 122.389 145.232C124.755 147.589 127.343 148.768 130.152 148.768C132.961 148.768 135.919 147.663 139.024 145.453V95.4947C135.327 96.821 132.518 97.9263 130.596 98.8105C128.821 99.6947 126.899 101.095 124.829 103.011C120.984 106.547 119.062 112.663 119.062 121.358V135.726Z" fill="white"/>
<path d="M187.854 64.7684C187.854 63.2947 195.987 59.5368 212.252 53.4947C228.665 47.3053 238.72 44.2105 242.416 44.2105C246.113 44.2105 250.179 47.6 254.615 54.3789C259.051 61.0105 261.269 68.3789 261.269 76.4842V146.779C261.269 152.379 258.756 160.337 253.728 170.653C248.701 181.116 243.378 190.253 237.759 198.063C232.14 206.021 228.295 210 226.225 210C222.529 210 217.575 208.895 211.365 206.684C205.154 204.474 199.831 202.263 195.395 200.053L188.963 196.737V190.105H196.504C202.271 190.105 208.851 186.789 216.244 180.158C223.638 173.674 229.774 164.979 234.654 154.074C217.945 161.884 208.333 165.789 205.82 165.789C201.236 165.789 197.096 162.916 193.399 157.168C189.702 151.274 187.854 144.716 187.854 137.495V64.7684ZM234.654 84C234.654 71.0316 231.253 64.5474 224.451 64.5474C220.902 64.5474 217.649 65.7263 214.692 68.0842V118.926C214.692 129.242 216.318 136.168 219.571 139.705C222.824 143.095 227.852 144.789 234.654 144.789V84Z" fill="white"/>
<path d="M352.132 73.3895V135.947C352.132 141.4 353.019 145.232 354.793 147.442C356.568 149.505 359.303 150.979 363 151.863V156.726L338.824 170.211C335.571 168.884 332.54 166.747 329.73 163.8C326.921 160.705 325.516 157.905 325.516 155.4L297.791 170.211C297.348 169.916 296.682 169.547 295.795 169.105C294.908 168.516 293.355 167.411 291.137 165.789C289.067 164.021 287.219 162.179 285.593 160.263C281.157 155.4 278.939 149.874 278.939 143.684V107.432C278.939 105.074 282.783 102.053 290.472 98.3684C298.161 94.6842 305.85 91.6632 313.539 89.3053L325.294 85.5474C325.294 77.1474 323.076 71.3263 318.64 68.0842C314.204 64.6947 305.628 63 292.912 63V56.3684C315.831 48.2631 328.695 44.2105 331.505 44.2105C336.384 44.2105 341.042 47.3789 345.478 53.7158C349.914 60.0526 352.132 66.6105 352.132 73.3895ZM305.554 135.726C305.554 139.558 306.663 142.726 308.881 145.232C311.247 147.589 313.835 148.768 316.644 148.768C319.454 148.768 322.411 147.663 325.516 145.453V95.4947C321.82 96.821 319.01 97.9263 317.088 98.8105C315.313 99.6947 313.391 101.095 311.321 103.011C307.477 106.547 305.554 112.663 305.554 121.358V135.726Z" fill="white"/>
</svg>
