<svg width="47" height="41" viewBox="0 0 47 41" fill="none" xmlns="http://www.w3.org/2000/svg">
<path d="M7.26825 38.0885C7.26825 38.0885 11.2452 30.7957 12.298 30.4253C13.0914 30.1461 27.9577 29.6786 35.2352 29.4652C37.4031 29.4017 39.0944 27.5692 38.9872 25.4012L38.2652 10.8022L38.1299 7.37034C38.1299 7.37034 38.2652 3.52897 41.3857 3.17801C34.9716 1.63755 9.13988 1.46213 4.63637 5.67391C0.132859 9.88568 7.26825 38.0885 7.26825 38.0885Z" fill="white"/>
<path fill-rule="evenodd" clip-rule="evenodd" d="M7.95016 6.35127C6.90266 6.71132 6.34909 7.04788 6.11931 7.26276C6.05875 7.31939 5.7941 7.67069 5.58659 8.7036C5.39262 9.66905 5.30333 10.9479 5.32032 12.4902C5.35419 15.5662 5.80427 19.3624 6.40861 23.1127C6.94578 26.4462 7.59485 29.6838 8.15 32.2506C8.53513 31.6353 8.92627 31.036 9.29208 30.5193C9.57296 30.1226 9.8683 29.7326 10.156 29.4101C10.2993 29.2494 10.4699 29.0725 10.6606 28.9107C10.8225 28.7734 11.1392 28.5242 11.5755 28.3707C11.8745 28.2655 12.2054 28.2255 12.3274 28.2108C12.3327 28.2102 12.3376 28.2096 12.3421 28.209C12.5391 28.185 12.7767 28.1628 13.0376 28.1418C13.5633 28.0996 14.2603 28.0564 15.0764 28.0128C16.7127 27.9255 18.8864 27.8337 21.2525 27.7444C25.9877 27.5656 31.5315 27.3951 35.1721 27.2884C36.1218 27.2605 36.863 26.4584 36.816 25.5074L36.0939 10.9084C36.0937 10.9043 36.0935 10.9002 36.0934 10.8961C36.0932 10.8929 36.0931 10.8898 36.093 10.8866L35.9577 7.45478C35.9555 7.40065 35.9554 7.34646 35.9573 7.29232L38.1307 7.36898C35.9573 7.29232 35.9574 7.29145 35.9574 7.29056L35.9575 7.2887L35.9576 7.2847L35.958 7.27559C35.9583 7.26903 35.9586 7.26148 35.959 7.25298C35.9598 7.23599 35.9609 7.21517 35.9625 7.19074C35.9655 7.14194 35.9701 7.07849 35.9772 7.00232C35.9912 6.85053 36.0152 6.64516 36.056 6.40232C36.1308 5.95733 36.2684 5.34874 36.5272 4.69891C32.7773 4.3826 27.5739 4.24967 22.3746 4.44244C18.5161 4.5855 14.7714 4.90461 11.7494 5.43303C10.2368 5.69752 8.95409 6.00619 7.95016 6.35127ZM41.4035 5.38383C41.0443 5.48924 40.8021 5.7533 40.5918 6.25139C40.4644 6.55312 40.388 6.87017 40.3453 7.12426C40.3251 7.24468 40.3141 7.34077 40.3085 7.4007L40.3567 8.62442H42.156V7.36898C42.156 7.30559 42.1588 7.24224 42.1643 7.1791C42.1647 7.17293 42.1658 7.15537 42.1668 7.12801C42.1687 7.07236 42.1699 6.98053 42.1645 6.86484C42.1532 6.62239 42.1155 6.33346 42.0307 6.06888C41.9461 5.80457 41.8415 5.64724 41.7484 5.55882C41.6991 5.51202 41.6056 5.43603 41.4035 5.38383ZM42.1654 7.16729C42.1656 7.16544 42.1657 7.1636 42.1659 7.16174L42.1654 7.16663L42.1654 7.16729ZM46.5055 7.44791V9.4708C46.5055 11.4074 44.9368 12.9772 43.0018 12.9772H40.5511L41.1602 25.2922C41.3276 28.6773 38.6859 31.54 35.2995 31.6393C31.662 31.746 26.133 31.916 21.4165 32.0941C19.0568 32.1832 16.91 32.274 15.3081 32.3595C14.505 32.4023 13.8534 32.4431 13.3858 32.4807C13.3366 32.4846 13.2903 32.4885 13.2467 32.4922C13.135 32.6316 12.9993 32.8123 12.8411 33.0358C12.3665 33.706 11.8031 34.5986 11.2494 35.5179C10.7005 36.4294 10.1812 37.3337 9.79786 38.0125C9.6066 38.3513 9.45011 38.6322 9.3418 38.8279C9.28767 38.9256 9.24562 39.002 9.21734 39.0535C9.2032 39.0792 9.1925 39.0987 9.18547 39.1116L9.17553 39.1298M12.7706 32.5438C12.7702 32.5437 12.7761 32.5426 12.7894 32.5405C12.7775 32.5428 12.7709 32.5438 12.7706 32.5438ZM46.5055 7.44791C46.5084 7.40148 46.5114 7.34461 46.5137 7.27847C46.5191 7.12268 46.5209 6.91166 46.5093 6.66173C46.4864 6.17296 46.4095 5.47961 46.1726 4.73998C45.9356 4.00008 45.5113 3.13127 44.7417 2.40073C43.9761 1.674 42.9754 1.1869 41.7644 1.02986C38.1768 0.206021 29.9666 -0.194845 22.2136 0.0926088C18.2489 0.239606 14.2897 0.570075 11.0007 1.14518C9.35784 1.43245 7.83323 1.78905 6.53725 2.23452C5.28483 2.66501 4.04587 3.24429 3.14968 4.08236C2.08427 5.07867 1.5867 6.53004 1.3224 7.84562C1.04454 9.22867 0.952408 10.8442 0.971063 12.5382C1.00847 15.9348 1.4979 19.9789 2.11457 23.8057C2.73394 27.6494 3.49443 31.35 4.09848 34.0844C4.40087 35.4533 4.66489 36.5837 4.85369 37.3734C4.94811 37.7684 5.02377 38.0784 5.07607 38.2906C5.10222 38.3967 5.12254 38.4783 5.13644 38.534C5.1434 38.5618 5.14875 38.5832 5.15243 38.5978L5.15819 38.6206C5.15829 38.621 5.15836 38.6213 7.26659 38.0871L5.15836 38.6213C5.37796 39.4892 6.10621 40.134 6.99373 40.2463C7.88122 40.3586 8.74695 39.9156 9.17553 39.1298M40.3036 7.46078C40.3035 7.46312 40.3034 7.46432 40.3034 7.46432L40.3035 7.46292L40.3036 7.46078Z" fill="white"/>
</svg>
