<svg width="38" height="37" viewBox="0 0 38 37" fill="none" xmlns="http://www.w3.org/2000/svg">
<g clip-path="url(#clip0_3065_13274)">
<path d="M3.06396 1.91551C2.06885 1.98887 1.72809 2.73063 1.72809 3.59668C1.72809 4.32213 1.99359 4.78879 2.43261 4.78879C2.87163 4.78879 2.97615 4.33436 3.08904 3.74544L3.34409 2.33326C3.58032 1.0678 4.30993 0.185438 5.69596 0.185438C7.30778 0.185438 8.2778 1.40811 8.2778 3.33992C8.2778 5.47552 7.20743 6.6289 5.4451 6.66762L5.40538 4.75211C6.22487 4.69097 6.60326 4.11224 6.60326 3.32566C6.60326 2.63689 6.32522 2.24564 5.88411 2.24564C5.52036 2.24564 5.38029 2.53908 5.29249 3.01795L5.02908 4.47904C4.73849 6.10927 3.86882 6.83676 2.57268 6.83676C0.883509 6.82657 0.0410156 5.40216 0.0410156 3.59668C0.0410156 1.49777 1.08629 0 3.00124 0L3.06396 1.91551Z" fill="white"/>
<path d="M0.0410156 17.3211C0.0410156 15.0795 1.71346 13.3066 4.15941 13.3066C6.60535 13.3066 8.2778 15.0632 8.2778 17.3211C8.2778 19.5789 6.60535 21.3355 4.15941 21.3355C1.71346 21.3355 0.0410156 19.5626 0.0410156 17.3211ZM6.38794 17.3211C6.38794 16.1799 5.50572 15.4545 4.15941 15.4545C2.81309 15.4545 1.93088 16.1697 1.93088 17.3211C1.93088 18.4724 2.811 19.1877 4.15941 19.1877C5.50781 19.1877 6.38794 18.452 6.38794 17.3211Z" fill="white"/>
<path d="M0.0410156 27.1526C0.555292 26.9019 3.1873 25.6018 3.1873 25.6018V24.2141H0.0410156V22.1641H8.27571V26.0685C8.27571 28.0696 7.30569 29.064 5.75659 29.064C4.59842 29.064 3.3859 28.7461 3.1873 27.4175C3.1873 27.4175 0.630552 28.9152 0.0514684 29.2657L0.0410156 27.1526ZM4.62351 25.6996C4.62351 26.584 4.84929 27.0262 5.58098 27.0262C6.22278 27.0262 6.56354 26.584 6.56354 25.6996V24.2141H4.62351V25.6996Z" fill="white"/>
<path d="M8.27571 34.7512V36.9928L3.34409 34.0298H0.0410156V32.0043H3.34409L8.26944 29.0332V31.3522L5.41165 33.0965L8.27571 34.7512Z" fill="white"/>
<path d="M13.38 36.9999V30.6828H10.0352V28.9629H15.4999V36.9917L13.38 36.9999Z" fill="white"/>
<path d="M27.5598 28.9727V35.2898H30.888V37.0076H25.4316V28.9788L27.5598 28.9727Z" fill="white"/>
<path d="M0.0410156 10.3933H6.52173V7.13281H8.28407V12.4575H0.0410156V10.3933Z" fill="white"/>
<path d="M21.662 28.9727L24.8229 37.0015H22.5442L21.9505 35.355H18.8544L18.2628 37.0015H16.1074L19.2704 28.9727H21.662ZM19.4711 33.7961H21.3359L20.4286 31.5138H20.3784L19.4711 33.7961Z" fill="white"/>
<path d="M37.9996 36.9995H31.751V28.9727H37.9996V30.6905H33.8541V32.1007H36.9669V33.794H33.8541V35.2796H37.9996V36.9995Z" fill="white"/>
</g>
<defs>
<clipPath id="clip0_3065_13274">
<rect width="38" height="37" fill="white"/>
</clipPath>
</defs>
</svg>
