<?xml version="1.0" encoding="utf-8"?>
<!-- Generator: Adobe Illustrator 27.1.1, SVG Export Plug-In . SVG Version: 6.00 Build 0)  -->
<svg version="1.1" id="Layer_1" xmlns="http://www.w3.org/2000/svg" xmlns:xlink="http://www.w3.org/1999/xlink" x="0px" y="0px"
	 viewBox="0 0 16 16" style="enable-background:new 0 0 16 16;" xml:space="preserve">
<style type="text/css">
	.st0{fill:#CF4A00;}
	.st1{fill:#231F20;}
	.st2{fill:none;stroke:#231F20;stroke-width:2;stroke-linecap:round;stroke-miterlimit:10;}
	.st3{fill:none;stroke:#231F20;stroke-width:2;stroke-linecap:round;stroke-miterlimit:1;stroke-dasharray:5.9888,4.9907;}
</style>
<circle class="st1" cx="11" cy="5" r="1"/>
<path class="st1" d="M8,5.96H7c-0.55,0-1-0.45-1-1s0.45-1,1-1h1c0.55,0,1,0.45,1,1S8.55,5.96,8,5.96z"/>
<path class="st1" d="M11.08,9.95c-0.55,0-1-0.45-1-1v-1c0-0.55,0.45-1,1-1s1,0.45,1,1v1C12.08,9.5,11.63,9.95,11.08,9.95z"/>
<path class="st1" d="M10.93,3.02c-0.55,0-1-0.45-1-1v-1c0-0.55,0.45-1,1-1s1,0.45,1,1v1C11.93,2.58,11.48,3.02,10.93,3.02z"/>
<path class="st1" d="M15.01,6.02h-1c-0.55,0-1-0.45-1-1s0.45-1,1-1h1c0.55,0,1,0.45,1,1S15.56,6.02,15.01,6.02z"/>
<path class="st1" d="M1.04,15.96c-0.26,0-0.51-0.1-0.71-0.29c-0.39-0.39-0.39-1.02,0-1.41l6.96-6.96c0.39-0.39,1.02-0.39,1.41,0
	s0.39,1.02,0,1.41l-6.96,6.96C1.55,15.86,1.3,15.96,1.04,15.96z"/>
</svg>
