<?xml version="1.0" encoding="utf-8"?>
<!-- Generator: Adobe Illustrator 27.1.1, SVG Export Plug-In . SVG Version: 6.00 Build 0)  -->
<svg version="1.1" id="Layer_1" xmlns="http://www.w3.org/2000/svg" xmlns:xlink="http://www.w3.org/1999/xlink" x="0px" y="0px"
	 viewBox="0 0 16 16" style="enable-background:new 0 0 16 16;" xml:space="preserve">
<style type="text/css">
	.st0{fill:#CF4A00;}
	.st1{fill:#231F20;}
	.st2{fill:none;stroke:#231F20;stroke-width:2;stroke-linecap:round;stroke-miterlimit:10;}
	.st3{fill:none;stroke:#231F20;stroke-width:2;stroke-linecap:round;stroke-miterlimit:1;stroke-dasharray:5.9888,4.9907;}
</style>
<g>
	<path class="st1" d="M8,2.5C3.51,2.5,0,4.92,0,8s3.51,5.5,8,5.5s8-2.42,8-5.5S12.49,2.5,8,2.5z M8,10.5c-1.38,0-2.5-1.12-2.5-2.5
		S6.62,5.5,8,5.5s2.5,1.12,2.5,2.5S9.38,10.5,8,10.5z M2,8c0-1.15,1.01-2.19,2.53-2.83C3.9,5.95,3.5,6.92,3.5,8s0.4,2.05,1.03,2.83
		C3.01,10.19,2,9.15,2,8z M11.47,10.83C12.1,10.05,12.5,9.08,12.5,8s-0.4-2.05-1.03-2.83C12.99,5.81,14,6.85,14,8
		S12.99,10.19,11.47,10.83z"/>
	<circle class="st1" cx="8" cy="8" r="1"/>
</g>
</svg>
