<?xml version="1.0" encoding="utf-8"?>
<!-- Generator: Adobe Illustrator 27.1.1, SVG Export Plug-In . SVG Version: 6.00 Build 0)  -->
<svg version="1.1" id="Layer_1" xmlns="http://www.w3.org/2000/svg" xmlns:xlink="http://www.w3.org/1999/xlink" x="0px" y="0px"
	 viewBox="0 0 16 16" style="enable-background:new 0 0 16 16;" xml:space="preserve">
<style type="text/css">
	.st0{fill:#CF4A00;}
	.st1{fill:#231F20;}
	.st2{fill:none;stroke:#231F20;stroke-width:2;stroke-linecap:round;stroke-miterlimit:10;}
	.st3{fill:none;stroke:#231F20;stroke-width:2;stroke-linecap:round;stroke-miterlimit:1;stroke-dasharray:5.9888,4.9907;}
</style>
<path class="st1" d="M15.34,4.05l-4.39-1.58l1.4-0.51c0.52-0.19,0.79-0.76,0.6-1.28c-0.19-0.52-0.76-0.79-1.28-0.6L8.01,1.4
	L4.34,0.08c-0.52-0.19-1.09,0.08-1.28,0.6C2.87,1.2,3.14,1.77,3.66,1.96l1.4,0.51L0.67,4.05c-0.52,0.19-0.79,0.76-0.6,1.28
	C0.22,5.73,0.6,5.98,1.01,5.98c0.11,0,0.23-0.02,0.34-0.06l6.66-2.4l6.66,2.4c0.11,0.04,0.23,0.06,0.34,0.06
	c0.41,0,0.79-0.25,0.94-0.66C16.13,4.81,15.86,4.23,15.34,4.05z"/>
<path class="st1" d="M1,15.49c-0.55,0-1-0.45-1-1V7.5c0-0.55,0.45-1,1-1s1,0.45,1,1v6.99C2,15.05,1.55,15.49,1,15.49z"/>
<path class="st1" d="M14.99,15.49c-0.55,0-1-0.45-1-1V7.5c0-0.55,0.45-1,1-1s1,0.45,1,1v6.99C15.99,15.05,15.54,15.49,14.99,15.49z"
	/>
<path class="st1" d="M10.94,12.5c-0.55,0-1-0.45-1-1v-5c0-0.55,0.45-1,1-1s1,0.45,1,1v5C11.94,12.05,11.49,12.5,10.94,12.5z"/>
<path class="st1" d="M5.04,12.5c-0.55,0-1-0.45-1-1v-5c0-0.55,0.45-1,1-1s1,0.45,1,1v5C6.04,12.05,5.59,12.5,5.04,12.5z"/>
</svg>
