<?xml version="1.0" encoding="utf-8"?>
<!-- Generator: Adobe Illustrator 27.1.1, SVG Export Plug-In . SVG Version: 6.00 Build 0)  -->
<svg version="1.1" id="Layer_1" xmlns="http://www.w3.org/2000/svg" xmlns:xlink="http://www.w3.org/1999/xlink" x="0px" y="0px"
	 viewBox="0 0 16 16" style="enable-background:new 0 0 16 16;" xml:space="preserve">
<style type="text/css">
	.st0{fill:#CF4A00;}
	.st1{fill:#231F20;}
	.st2{fill:none;stroke:#231F20;stroke-width:2;stroke-linecap:round;stroke-miterlimit:10;}
	.st3{fill:none;stroke:#231F20;stroke-width:2;stroke-linecap:round;stroke-miterlimit:1;stroke-dasharray:5.9888,4.9907;}
</style>
<path class="st1" d="M8,16c-2.86,0-5.52-1.54-6.94-4.03c-0.27-0.48-0.11-1.09,0.37-1.36c0.48-0.27,1.09-0.11,1.37,0.37
	C3.86,12.84,5.85,14,8,14c0.8,0,1.58-0.16,2.31-0.46c0.51-0.22,1.1,0.03,1.31,0.54c0.21,0.51-0.03,1.1-0.54,1.31
	C10.11,15.79,9.07,16,8,16z M14.03,12.55c-0.17,0-0.35-0.04-0.51-0.14c-0.48-0.28-0.63-0.89-0.35-1.37C13.71,10.12,14,9.07,14,8
	c0-1.88-0.85-3.61-2.35-4.76c-0.44-0.34-0.52-0.96-0.18-1.4c0.34-0.44,0.96-0.52,1.4-0.18C14.86,3.18,16,5.5,16,8
	c0,1.43-0.38,2.83-1.1,4.05C14.71,12.37,14.38,12.55,14.03,12.55z M1.05,8.14c-0.04,0-0.08,0-0.12-0.01
	C0.38,8.06-0.01,7.56,0.06,7.02C0.55,3.02,3.96,0,8,0c0.55,0,1.04,0.45,1.04,1S8.63,2,8.08,2H8C4.97,2,2.41,4.26,2.05,7.26
	C1.98,7.77,1.55,8.14,1.05,8.14z"/>
<circle class="st1" cx="8" cy="8" r="2.5"/>
</svg>
