<?xml version="1.0" encoding="utf-8"?>
<!-- Generator: Adobe Illustrator 27.1.1, SVG Export Plug-In . SVG Version: 6.00 Build 0)  -->
<svg version="1.1" id="Layer_1" xmlns="http://www.w3.org/2000/svg" xmlns:xlink="http://www.w3.org/1999/xlink" x="0px" y="0px"
	 viewBox="0 0 16 16" style="enable-background:new 0 0 16 16;" xml:space="preserve">
<style type="text/css">
	.st0{fill:#CF4A00;}
	.st1{fill:#231F20;}
	.st2{fill:none;stroke:#231F20;stroke-width:2;stroke-linecap:round;stroke-miterlimit:10;}
	.st3{fill:none;stroke:#231F20;stroke-width:2;stroke-linecap:round;stroke-miterlimit:1;stroke-dasharray:5.9888,4.9907;}
</style>
<path class="st1" d="M12.02,4.68H1c-0.55,0-1-0.49-1-1.09S0.45,2.5,1,2.5h11.02c0.55,0,1,0.49,1,1.09S12.57,4.68,12.02,4.68z"/>
<path class="st1" d="M12.02,13.5H1c-0.55,0-1-0.49-1-1.09c0-0.6,0.45-1.09,1-1.09h11.02c0.55,0,1,0.49,1,1.09
	C13.02,13.01,12.57,13.5,12.02,13.5z"/>
<path class="st1" d="M15,9.09H3.98c-0.55,0-1-0.49-1-1.09c0-0.6,0.45-1.09,1-1.09H15c0.55,0,1,0.49,1,1.09
	C16,8.6,15.55,9.09,15,9.09z"/>
</svg>
